<svg width="172" height="34" viewBox="0 0 172 34" fill="none" xmlns="http://www.w3.org/2000/svg">
<rect y="0.850006" width="15.2" height="14.5667" fill="#456CB7"/>
<rect x="17.7333" y="0.850006" width="15.2" height="14.5667" fill="#459BD7"/>
<rect y="18.5833" width="15.2" height="14.5667" fill="#459BD7"/>
<rect x="17.7333" y="18.5833" width="15.2" height="14.5667" fill="#459BD7"/>
<path d="M51.013 25H47.1042V13.7286H43.5713V10.5323H54.5359V13.7286H51.013V25ZM61.8489 13.5901C63.2673 13.5901 64.3757 13.9431 65.1739 14.649C65.9722 15.3483 66.3713 16.3477 66.3713 17.6474V25H63.6896L62.9474 23.5156H62.8682C62.5515 23.9115 62.225 24.2347 61.8885 24.4854C61.5587 24.7295 61.1793 24.9076 60.7505 25.0198C60.3217 25.1385 59.7972 25.1979 59.1771 25.1979C58.5305 25.1979 57.95 25.066 57.4354 24.8021C56.9208 24.5382 56.5151 24.1391 56.2182 23.6047C55.9213 23.0703 55.7729 22.3941 55.7729 21.576C55.7729 20.3753 56.1885 19.4847 57.0198 18.9042C57.851 18.3236 59.055 17.997 60.6318 17.9245L62.5021 17.8651V17.7068C62.5021 17.2054 62.3767 16.8491 62.126 16.638C61.8819 16.4269 61.5521 16.3214 61.1364 16.3214C60.6944 16.3214 60.1996 16.4005 59.6521 16.5589C59.1111 16.7106 58.5668 16.9085 58.0193 17.1526L56.901 14.5995C57.5476 14.2696 58.2798 14.0189 59.0979 13.8474C59.916 13.6759 60.833 13.5901 61.8489 13.5901ZM62.5219 19.9927L61.6312 20.0323C60.9187 20.0587 60.4173 20.184 60.1271 20.4083C59.8434 20.626 59.7015 20.9394 59.7015 21.3484C59.7015 21.7311 59.8038 22.0148 60.0083 22.1995C60.2128 22.3776 60.4833 22.4667 60.8198 22.4667C61.2882 22.4667 61.6873 22.3182 62.0172 22.0214C62.3536 21.7245 62.5219 21.3385 62.5219 20.8635V19.9927ZM77.3359 21.5563C77.3359 22.2688 77.1776 22.8988 76.8609 23.4464C76.5443 23.9939 76.0363 24.4227 75.337 24.7328C74.6443 25.0429 73.7305 25.1979 72.5958 25.1979C71.7976 25.1979 71.0818 25.155 70.4484 25.0693C69.8217 24.9835 69.1851 24.8186 68.5385 24.5745V21.4771C69.2444 21.8003 69.9635 22.0345 70.6958 22.1797C71.4281 22.3182 72.0054 22.3875 72.4276 22.3875C72.863 22.3875 73.1797 22.3413 73.3776 22.249C73.5821 22.15 73.6844 22.0049 73.6844 21.8135C73.6844 21.6486 73.6151 21.5101 73.4765 21.3979C73.3446 21.2792 73.1038 21.1439 72.7541 20.9922C72.4111 20.8405 71.9262 20.6359 71.2995 20.3786C70.6793 20.1214 70.1614 19.841 69.7458 19.5375C69.3368 19.234 69.03 18.8712 68.8255 18.449C68.621 18.0267 68.5187 17.5089 68.5187 16.8953C68.5187 15.8002 68.941 14.9755 69.7854 14.4214C70.6298 13.8672 71.7481 13.5901 73.1401 13.5901C73.879 13.5901 74.575 13.6726 75.2281 13.8375C75.8812 13.9958 76.5574 14.23 77.2568 14.5401L76.1979 17.0339C75.6437 16.7832 75.083 16.5819 74.5156 16.4302C73.9482 16.2785 73.4963 16.2026 73.1599 16.2026C72.8564 16.2026 72.6222 16.2422 72.4573 16.3214C72.2923 16.4005 72.2099 16.516 72.2099 16.6677C72.2099 16.8063 72.266 16.9283 72.3781 17.0339C72.4969 17.1394 72.7179 17.2615 73.0411 17.4C73.3644 17.5385 73.8361 17.7332 74.4562 17.9839C75.1094 18.2477 75.647 18.5314 76.0693 18.8349C76.4981 19.1318 76.8147 19.4946 77.0193 19.9234C77.2304 20.3523 77.3359 20.8965 77.3359 21.5563ZM83.3823 9.60208V15.6583C83.3823 16.1135 83.3625 16.6215 83.3229 17.1823C83.2899 17.7365 83.2371 18.2411 83.1646 18.6964H83.2437C83.3955 18.4655 83.5868 18.1752 83.8177 17.8255C84.0486 17.4759 84.2564 17.1856 84.4411 16.9547L86.9547 13.788H91.2693L87.3802 18.5578L91.5166 25H87.0932L84.639 20.9823L83.3823 21.9422V25H79.4932V9.60208H83.3823ZM104.648 25L101.69 14.5797H101.601C101.627 14.8502 101.653 15.2163 101.68 15.6781C101.713 16.1399 101.742 16.638 101.769 17.1724C101.795 17.7068 101.808 18.2214 101.808 18.7161V25H98.3448V10.5323H103.55L106.568 20.8042H106.647L109.606 10.5323H114.821V25H111.229V18.6568C111.229 18.2016 111.236 17.7134 111.249 17.1922C111.269 16.6644 111.289 16.1696 111.308 15.7078C111.335 15.2394 111.358 14.87 111.378 14.5995H111.289L108.369 25H104.648ZM123.183 13.5901C124.602 13.5901 125.71 13.9431 126.508 14.649C127.307 15.3483 127.706 16.3477 127.706 17.6474V25H125.024L124.282 23.5156H124.203C123.886 23.9115 123.559 24.2347 123.223 24.4854C122.893 24.7295 122.514 24.9076 122.085 25.0198C121.656 25.1385 121.132 25.1979 120.511 25.1979C119.865 25.1979 119.284 25.066 118.77 24.8021C118.255 24.5382 117.849 24.1391 117.553 23.6047C117.256 23.0703 117.107 22.3941 117.107 21.576C117.107 20.3753 117.523 19.4847 118.354 18.9042C119.185 18.3236 120.389 17.997 121.966 17.9245L123.836 17.8651V17.7068C123.836 17.2054 123.711 16.8491 123.46 16.638C123.216 16.4269 122.886 16.3214 122.471 16.3214C122.029 16.3214 121.534 16.4005 120.986 16.5589C120.445 16.7106 119.901 16.9085 119.354 17.1526L118.235 14.5995C118.882 14.2696 119.614 14.0189 120.432 13.8474C121.25 13.6759 122.167 13.5901 123.183 13.5901ZM123.856 19.9927L122.966 20.0323C122.253 20.0587 121.752 20.184 121.461 20.4083C121.178 20.626 121.036 20.9394 121.036 21.3484C121.036 21.7311 121.138 22.0148 121.343 22.1995C121.547 22.3776 121.818 22.4667 122.154 22.4667C122.623 22.4667 123.022 22.3182 123.352 22.0214C123.688 21.7245 123.856 21.3385 123.856 20.8635V19.9927ZM138.67 21.5563C138.67 22.2688 138.512 22.8988 138.195 23.4464C137.879 23.9939 137.371 24.4227 136.671 24.7328C135.979 25.0429 135.065 25.1979 133.93 25.1979C133.132 25.1979 132.416 25.155 131.783 25.0693C131.156 24.9835 130.519 24.8186 129.873 24.5745V21.4771C130.579 21.8003 131.298 22.0345 132.03 22.1797C132.762 22.3182 133.34 22.3875 133.762 22.3875C134.197 22.3875 134.514 22.3413 134.712 22.249C134.916 22.15 135.019 22.0049 135.019 21.8135C135.019 21.6486 134.949 21.5101 134.811 21.3979C134.679 21.2792 134.438 21.1439 134.089 20.9922C133.745 20.8405 133.261 20.6359 132.634 20.3786C132.014 20.1214 131.496 19.841 131.08 19.5375C130.671 19.234 130.364 18.8712 130.16 18.449C129.955 18.0267 129.853 17.5089 129.853 16.8953C129.853 15.8002 130.275 14.9755 131.12 14.4214C131.964 13.8672 133.082 13.5901 134.474 13.5901C135.213 13.5901 135.909 13.6726 136.562 13.8375C137.216 13.9958 137.892 14.23 138.591 14.5401L137.532 17.0339C136.978 16.7832 136.417 16.5819 135.85 16.4302C135.283 16.2785 134.831 16.2026 134.494 16.2026C134.191 16.2026 133.957 16.2422 133.792 16.3214C133.627 16.4005 133.544 16.516 133.544 16.6677C133.544 16.8063 133.6 16.9283 133.712 17.0339C133.831 17.1394 134.052 17.2615 134.376 17.4C134.699 17.5385 135.17 17.7332 135.791 17.9839C136.444 18.2477 136.981 18.5314 137.404 18.8349C137.832 19.1318 138.149 19.4946 138.354 19.9234C138.565 20.3523 138.67 20.8965 138.67 21.5563ZM146.32 22.1401C146.669 22.1401 146.989 22.1038 147.28 22.0313C147.57 21.9587 147.873 21.8663 148.19 21.7542V24.5745C147.768 24.7592 147.319 24.9076 146.844 25.0198C146.376 25.1385 145.775 25.1979 145.043 25.1979C144.318 25.1979 143.678 25.0858 143.123 24.8615C142.569 24.6306 142.137 24.2347 141.827 23.674C141.524 23.1066 141.372 22.3182 141.372 21.3089V16.6875H140.016V15.1141L141.738 13.8969L142.737 11.5417H145.271V13.788H148.022V16.6875H145.271V21.0516C145.271 21.4144 145.363 21.6882 145.548 21.8729C145.733 22.051 145.99 22.1401 146.32 22.1401ZM155.196 13.5901C156.285 13.5901 157.225 13.7814 158.017 14.1641C158.808 14.5401 159.419 15.1075 159.847 15.8661C160.276 16.6248 160.491 17.5748 160.491 18.7161V20.438H153.573C153.606 21.0252 153.824 21.5068 154.227 21.8828C154.636 22.2589 155.236 22.4469 156.028 22.4469C156.727 22.4469 157.367 22.3776 157.947 22.2391C158.535 22.1005 159.138 21.8861 159.758 21.5958V24.3766C159.217 24.6602 158.627 24.8681 157.987 25C157.347 25.1319 156.539 25.1979 155.562 25.1979C154.434 25.1979 153.425 24.9967 152.534 24.5943C151.644 24.1918 150.941 23.5684 150.427 22.724C149.919 21.8795 149.665 20.7943 149.665 19.4682C149.665 18.1224 149.895 17.0174 150.357 16.1531C150.819 15.2823 151.466 14.6391 152.297 14.2234C153.128 13.8012 154.095 13.5901 155.196 13.5901ZM155.335 16.2224C154.88 16.2224 154.497 16.3675 154.187 16.6578C153.883 16.9415 153.705 17.3901 153.653 18.0036H156.978C156.971 17.6738 156.905 17.3736 156.78 17.1031C156.654 16.8326 156.47 16.6182 156.226 16.4599C155.988 16.3016 155.691 16.2224 155.335 16.2224ZM169.446 13.5901C169.657 13.5901 169.878 13.6066 170.109 13.6396C170.34 13.666 170.512 13.6891 170.624 13.7089L170.278 17.3604C170.152 17.3274 169.991 17.301 169.793 17.2813C169.595 17.2549 169.318 17.2417 168.961 17.2417C168.717 17.2417 168.457 17.2648 168.18 17.3109C167.903 17.3571 167.639 17.4561 167.388 17.6078C167.144 17.753 166.943 17.9773 166.784 18.2807C166.626 18.5776 166.547 18.98 166.547 19.488V25H162.678V13.788H165.557L166.161 15.5792H166.349C166.553 15.2097 166.814 14.8766 167.131 14.5797C167.454 14.2762 167.814 14.0354 168.209 13.8573C168.612 13.6792 169.024 13.5901 169.446 13.5901Z" fill="#393132"/>
</svg>
